<svg width="256" height="256" viewBox="0 0 256 256" fill="none" xmlns="http://www.w3.org/2000/svg">
<g clip-path="url(#clip0_2202_7)" filter="url(#filter0_i_2202_7)">
<rect width="256" height="256" rx="32" fill="#439C72"/>
<rect width="256" height="256" rx="32" fill="url(#paint0_linear_2202_7)" fill-opacity="0.75"/>
<g filter="url(#filter1_i_2202_7)">
<path d="M59.376 137.64C59.376 139.656 58.912 141.4 57.984 142.872C57.088 144.344 55.744 145.48 53.952 146.28C52.192 147.08 50.016 147.48 47.424 147.48C46.144 147.48 44.96 147.4 43.872 147.24C42.784 147.112 41.76 146.904 40.8 146.616C39.872 146.328 38.976 145.976 38.112 145.56V139.8C39.552 140.44 41.104 141.032 42.768 141.576C44.464 142.088 46.112 142.344 47.712 142.344C48.928 142.344 49.92 142.168 50.688 141.816C51.456 141.432 52.016 140.92 52.368 140.28C52.752 139.608 52.944 138.84 52.944 137.976C52.944 137.016 52.704 136.2 52.224 135.528C51.776 134.856 51.072 134.232 50.112 133.656C49.152 133.08 47.904 132.488 46.368 131.88C45.28 131.4 44.24 130.888 43.248 130.344C42.288 129.768 41.44 129.08 40.704 128.28C40 127.48 39.44 126.536 39.024 125.448C38.64 124.36 38.448 123.08 38.448 121.608C38.448 119.656 38.912 117.976 39.84 116.568C40.768 115.16 42.064 114.088 43.728 113.352C45.392 112.616 47.328 112.248 49.536 112.248C51.392 112.248 53.088 112.44 54.624 112.824C56.192 113.208 57.664 113.752 59.04 114.456L57.024 119.4C55.712 118.792 54.416 118.312 53.136 117.96C51.888 117.608 50.624 117.432 49.344 117.432C48.352 117.432 47.52 117.608 46.848 117.96C46.176 118.28 45.664 118.744 45.312 119.352C44.992 119.96 44.832 120.664 44.832 121.464C44.832 122.392 45.056 123.176 45.504 123.816C45.952 124.456 46.656 125.064 47.616 125.64C48.576 126.184 49.824 126.824 51.36 127.56C53.056 128.328 54.496 129.144 55.68 130.008C56.896 130.872 57.808 131.912 58.416 133.128C59.056 134.344 59.376 135.848 59.376 137.64ZM100.34 147H92.9959L84.1639 131.832L81.2359 134.376V147H74.8039V112.728H81.2359V128.856C81.8119 128.056 82.4039 127.24 83.0119 126.408C83.6519 125.576 84.2919 124.744 84.9319 123.912L92.9959 112.728H100.196L88.8199 127.8L100.34 147ZM142.179 129.816C142.179 132.472 141.875 134.888 141.267 137.064C140.659 139.208 139.715 141.064 138.435 142.632C137.187 144.2 135.603 145.4 133.683 146.232C131.763 147.064 129.507 147.48 126.915 147.48C124.291 147.48 122.019 147.064 120.099 146.232C118.179 145.368 116.595 144.168 115.347 142.632C114.099 141.064 113.155 139.192 112.515 137.016C111.907 134.84 111.603 132.424 111.603 129.768C111.603 126.216 112.147 123.128 113.235 120.504C114.355 117.88 116.051 115.848 118.323 114.408C120.595 112.936 123.475 112.2 126.963 112.2C130.419 112.2 133.267 112.936 135.507 114.408C137.747 115.848 139.411 117.896 140.499 120.552C141.619 123.176 142.179 126.264 142.179 129.816ZM118.419 129.816C118.419 132.408 118.707 134.632 119.283 136.488C119.859 138.344 120.771 139.768 122.019 140.76C123.299 141.752 124.931 142.248 126.915 142.248C128.899 142.248 130.515 141.752 131.763 140.76C133.011 139.768 133.923 138.344 134.499 136.488C135.075 134.632 135.363 132.408 135.363 129.816C135.363 125.944 134.691 122.904 133.347 120.696C132.035 118.488 129.891 117.384 126.915 117.384C124.931 117.384 123.299 117.88 122.019 118.872C120.771 119.864 119.859 121.288 119.283 123.144C118.707 125 118.419 127.224 118.419 129.816ZM158.41 147V112.728H164.842V141.816H178.042V147H158.41ZM213.007 147L210.367 137.928H198.655L196.015 147H189.103L200.623 112.584H208.351L219.919 147H213.007ZM206.095 123.816C205.967 123.304 205.791 122.696 205.567 121.992C205.375 121.256 205.183 120.504 204.991 119.736C204.831 118.968 204.671 118.248 204.511 117.576C204.383 118.344 204.223 119.112 204.031 119.88C203.839 120.616 203.647 121.32 203.455 121.992C203.295 122.664 203.135 123.272 202.975 123.816L200.287 132.648H208.831L206.095 123.816Z" fill="white"/>
</g>
</g>
<defs>
<filter id="filter0_i_2202_7" x="0" y="-6" width="256" height="262" filterUnits="userSpaceOnUse" color-interpolation-filters="sRGB">
<feFlood flood-opacity="0" result="BackgroundImageFix"/>
<feBlend mode="normal" in="SourceGraphic" in2="BackgroundImageFix" result="shape"/>
<feColorMatrix in="SourceAlpha" type="matrix" values="0 0 0 0 0 0 0 0 0 0 0 0 0 0 0 0 0 0 127 0" result="hardAlpha"/>
<feOffset dy="-6"/>
<feGaussianBlur stdDeviation="6"/>
<feComposite in2="hardAlpha" operator="arithmetic" k2="-1" k3="1"/>
<feColorMatrix type="matrix" values="0 0 0 0 1 0 0 0 0 1 0 0 0 0 1 0 0 0 0.6 0"/>
<feBlend mode="lighten" in2="shape" result="effect1_innerShadow_2202_7"/>
</filter>
<filter id="filter1_i_2202_7" x="38.1121" y="112.2" width="182.807" height="36.28" filterUnits="userSpaceOnUse" color-interpolation-filters="sRGB">
<feFlood flood-opacity="0" result="BackgroundImageFix"/>
<feBlend mode="normal" in="SourceGraphic" in2="BackgroundImageFix" result="shape"/>
<feColorMatrix in="SourceAlpha" type="matrix" values="0 0 0 0 0 0 0 0 0 0 0 0 0 0 0 0 0 0 127 0" result="hardAlpha"/>
<feOffset dx="1" dy="1"/>
<feGaussianBlur stdDeviation="1"/>
<feComposite in2="hardAlpha" operator="arithmetic" k2="-1" k3="1"/>
<feColorMatrix type="matrix" values="0 0 0 0 0 0 0 0 0 0 0 0 0 0 0 0 0 0 0.3 0"/>
<feBlend mode="normal" in2="shape" result="effect1_innerShadow_2202_7"/>
</filter>
<linearGradient id="paint0_linear_2202_7" x1="128" y1="21" x2="128" y2="246" gradientUnits="userSpaceOnUse">
<stop stop-color="#75B797"/>
<stop offset="0.495" stop-color="#439C72"/>
<stop offset="1" stop-color="#1E6B5A"/>
</linearGradient>
<clipPath id="clip0_2202_7">
<rect width="256" height="256" fill="white"/>
</clipPath>
</defs>
</svg>
