<svg width="256" height="256" viewBox="0 0 256 256" fill="none" xmlns="http://www.w3.org/2000/svg">
<g clip-path="url(#clip0_103_17)">
<rect x="0.5" y="0.5" width="255" height="255" rx="31.5" fill="#439C72" stroke="url(#paint0_linear_103_17)"/>
<rect x="16.5" y="16.5" width="223" height="223" rx="15.5" stroke="#2E8064"/>
<path d="M59.096 137.832C59.096 139.88 58.6 141.624 57.608 143.064C56.616 144.472 55.192 145.56 53.336 146.328C51.512 147.096 49.352 147.48 46.856 147.48C45.576 147.48 44.344 147.416 43.16 147.288C42.008 147.16 40.952 146.984 39.992 146.76C39.032 146.504 38.184 146.2 37.448 145.848V141.72C38.6 142.232 40.024 142.696 41.72 143.112C43.448 143.528 45.224 143.736 47.048 143.736C48.744 143.736 50.168 143.512 51.32 143.064C52.472 142.616 53.336 141.976 53.912 141.144C54.488 140.312 54.776 139.336 54.776 138.216C54.776 137.096 54.536 136.152 54.056 135.384C53.576 134.616 52.744 133.912 51.56 133.272C50.408 132.6 48.792 131.896 46.712 131.16C45.24 130.616 43.944 130.04 42.824 129.432C41.736 128.792 40.824 128.072 40.088 127.272C39.352 126.472 38.792 125.56 38.408 124.536C38.056 123.512 37.88 122.328 37.88 120.984C37.88 119.16 38.344 117.608 39.272 116.328C40.2 115.016 41.48 114.008 43.112 113.304C44.776 112.6 46.68 112.248 48.824 112.248C50.712 112.248 52.44 112.424 54.008 112.776C55.576 113.128 57 113.592 58.28 114.168L56.936 117.864C55.752 117.352 54.456 116.92 53.048 116.568C51.672 116.216 50.232 116.04 48.728 116.04C47.288 116.04 46.088 116.248 45.128 116.664C44.168 117.08 43.448 117.672 42.968 118.44C42.488 119.176 42.248 120.04 42.248 121.032C42.248 122.184 42.488 123.144 42.968 123.912C43.448 124.68 44.232 125.368 45.32 125.976C46.408 126.584 47.88 127.24 49.736 127.944C51.752 128.68 53.448 129.48 54.824 130.344C56.232 131.176 57.288 132.184 57.992 133.368C58.728 134.552 59.096 136.04 59.096 137.832ZM100.656 147H95.5677L83.4237 130.632L79.9197 133.704V147H75.5997V112.728H79.9197V129.624C80.8797 128.536 81.8557 127.448 82.8477 126.36C83.8397 125.272 84.8317 124.184 85.8237 123.096L95.0877 112.728H100.128L86.5437 127.656L100.656 147ZM143.885 129.816C143.885 132.472 143.549 134.888 142.877 137.064C142.205 139.208 141.197 141.064 139.853 142.632C138.541 144.2 136.893 145.4 134.909 146.232C132.957 147.064 130.685 147.48 128.093 147.48C125.405 147.48 123.069 147.064 121.085 146.232C119.101 145.368 117.453 144.168 116.141 142.632C114.829 141.064 113.853 139.192 113.213 137.016C112.573 134.84 112.253 132.424 112.253 129.768C112.253 126.248 112.829 123.176 113.981 120.552C115.133 117.928 116.877 115.88 119.213 114.408C121.581 112.936 124.557 112.2 128.141 112.2C131.565 112.2 134.445 112.936 136.781 114.408C139.117 115.848 140.877 117.896 142.061 120.552C143.277 123.176 143.885 126.264 143.885 129.816ZM116.813 129.816C116.813 132.696 117.213 135.176 118.013 137.256C118.813 139.336 120.045 140.936 121.709 142.056C123.405 143.176 125.533 143.736 128.093 143.736C130.685 143.736 132.797 143.176 134.429 142.056C136.093 140.936 137.325 139.336 138.125 137.256C138.925 135.176 139.325 132.696 139.325 129.816C139.325 125.496 138.429 122.12 136.637 119.688C134.845 117.224 132.013 115.992 128.141 115.992C125.549 115.992 123.405 116.552 121.709 117.672C120.045 118.76 118.813 120.344 118.013 122.424C117.213 124.472 116.813 126.936 116.813 129.816ZM161.081 147V112.728H165.401V143.16H180.377V147H161.081ZM217.357 147L213.229 136.392H199.645L195.565 147H191.197L204.589 112.584H208.477L221.821 147H217.357ZM208.093 122.184C207.997 121.928 207.837 121.464 207.613 120.792C207.389 120.12 207.165 119.432 206.941 118.728C206.749 117.992 206.589 117.432 206.461 117.048C206.301 117.688 206.125 118.344 205.933 119.016C205.773 119.656 205.597 120.248 205.405 120.792C205.245 121.336 205.101 121.8 204.973 122.184L201.085 132.552H211.933L208.093 122.184Z" fill="white"/>
<path d="M96 161H160" stroke="#2E8064" stroke-linecap="round"/>
</g>
<defs>
<linearGradient id="paint0_linear_103_17" x1="128" y1="0" x2="128" y2="256" gradientUnits="userSpaceOnUse">
<stop stop-color="#439C72"/>
<stop offset="1" stop-color="#75B797"/>
</linearGradient>
<clipPath id="clip0_103_17">
<rect width="256" height="256" fill="white"/>
</clipPath>
</defs>
</svg>
